<?xml version="1.0" standalone="no"?><!DOCTYPE svg PUBLIC "-//W3C//DTD SVG 1.1//EN" "http://www.w3.org/Graphics/SVG/1.1/DTD/svg11.dtd"><svg t="1530802057516" class="icon" style="" viewBox="0 0 1024 1024" version="1.1" xmlns="http://www.w3.org/2000/svg" p-id="7519" xmlns:xlink="http://www.w3.org/1999/xlink" width="128" height="56"><defs><style type="text/css"></style></defs><path d="M511.211031 959.038476c-60.356646 0-118.925576-11.828396-174.077687-35.154661-53.254901-22.525016-101.076046-54.765301-142.136208-95.824439-41.060161-41.060161-73.299423-88.881306-95.824439-142.136208-23.327288-55.152111-35.154661-113.720018-35.154661-174.076664s11.828396-118.924553 35.154661-174.076664c22.525016-53.254901 54.765301-101.076046 95.824439-142.136208 41.060161-41.059138 88.881306-73.299423 142.136208-95.824439 55.152111-23.327288 113.720018-35.154661 174.077687-35.154661s118.925576 11.828396 174.076664 35.154661c53.254901 22.525016 101.076046 54.765301 142.135184 95.824439 41.060161 41.060161 73.300446 88.880283 95.825462 142.136208 23.327288 55.152111 35.154661 113.720018 35.154661 174.076664s-11.828396 118.925576-35.154661 174.076664c-22.525016 53.254901-54.765301 101.076046-95.825462 142.135184-41.059138 41.060161-88.880283 73.300446-142.135184 95.825462C630.136607 947.21008 571.5687 959.038476 511.211031 959.038476zM511.211031 126.050858c-103.050004 0-199.931518 40.129976-272.798083 112.99654-72.867588 72.867588-112.99654 169.749102-112.99654 272.798083s40.128953 199.931518 112.99654 272.798083 169.749102 112.99654 272.798083 112.99654c103.048981 0 199.931518-40.129976 272.798083-112.99654s112.99654-169.749102 112.99654-272.798083S856.875678 311.913962 784.009114 239.047398C711.142549 166.180833 614.260012 126.050858 511.211031 126.050858z" p-id="7520" fill="#d8d8d8"></path><path d="M585.208349 547.418674c-33.287127 0-29.860075 70.013587-75.331709 70.013587-45.471634 0-70.229504-179.181939-126.750799-179.181939s-94.589308 254.021437-94.589308 254.021437l444.537516 0C733.075071 692.27176 618.495476 547.418674 585.208349 547.418674z" p-id="7521" fill="#d8d8d8"></path><path d="M564.609195 390.621559a56.025 56.466 0 1 0 114.66146 0 56.025 56.466 0 1 0-114.66146 0Z" p-id="7522" fill="#d8d8d8"></path></svg>
