<?xml version="1.0" standalone="no"?><!DOCTYPE svg PUBLIC "-//W3C//DTD SVG 1.1//EN" "http://www.w3.org/Graphics/SVG/1.1/DTD/svg11.dtd"><svg t="1530771010859" class="icon" style="" viewBox="0 0 1024 1024" version="1.1" xmlns="http://www.w3.org/2000/svg" p-id="3676" xmlns:xlink="http://www.w3.org/1999/xlink" width="128" height="128"><defs><style type="text/css"></style></defs><path d="M651.2976436767577 91.35143429565426c6.694671752929688 4.5507170104980466 7.944160034179688 7.321721374511718 5.371413848876952 14.565061340332033-4.071209106445313 11.480532989501954-2.960040618896484 22.500000274658202 2.4482584533691405 33.15061532592773a469.6875002746582 469.6875002746582 0 0 0 11.840163299560547 21.670081512451173c9.009221374511721 15.653175842285155 9.087602783203124 31.227971099853523 0.08299237060546877 46.90881188964843a664.2571723022462 664.2571723022462 0 0 0-11.397541442871095 20.628073333740232c-7.284836151123048 13.776639587402343-7.247950927734377 27.62704879760742 0.09221347045898437 41.385246185302734 3.697745910644531 6.925205017089843 8.027151580810546 13.555328247070312 11.259220825195312 20.68801254272461a104.48207006835939 104.48207006835939 0 0 1 6.533299621582032 19.544568969726562c1.2863726806640625 5.615778350830078-3.1721308593749997 10.954917938232423-8.62192611694336 11.775614776611329-5.58811505126953 0.8529710998535157-11.420594604492186-2.9969258422851563-11.563524536132812-8.852458557128905-0.28586068725585934-11.434425842285156-5.707991821289062-20.747950927734376-10.945696838378908-30.245902130126954-2.7202870788574223-4.91034814453125-5.514344604492187-9.783811065673827-8.004098419189452-14.804814880371095-6.252049072265625-12.582479553222656-6.298155395507812-25.284835876464843 0.0461063232421875-37.802766906738285 4.227971099853516-8.340676391601562 8.917007904052735-16.441598419189457 13.324794982910154-24.68545037841797 7.46004116821289-13.942622680664062 7.501536529541015-27.94057360839844 0.0461063232421875-41.887807250976564-3.969774536132812-7.423155944824219-8.091700927734376-14.772540618896484-12.144467010498046-22.149590240478513-7.953381134033204-14.47745883178711-7.805840240478516-29.001024810791016 0.1475408935546875-43.372438934326176 1.3739751892089844-2.4897538146972655 3.8775610656738286-4.3570697937011715 5.869364776611328-6.5148565979003905h5.615779174804687zM384.83401663208014 91.35143429565426c9.557889587402343 7.2064547424316405 14.777151580810548 24.796106872558592 10.373975463867188 38.37448745727539-2.4574795532226568 7.570696838378907-5.749488006591797 15.192110961914063-10.217213470458983 21.716188659667967-15.150614776611329 22.154201202392574-15.252049346923826 43.74129116821288 0.13831979370117187 65.70184432983399 3.1951840209960936 4.55532797241211 5.472848419189454 9.788422027587892 7.82889340209961 14.878586151123045 5.1731556701660155 11.171619140625 5.283811340332031 22.53227453613281 0 33.65317639160156-3.4487704467773437 7.247950927734377-7.5522538146972655 14.186988006591797-11.328381134033204 21.292008178710937-4.223360961914063 7.944160034179688-8.17008233642578 15.883709106445313-8.372950653076172 25.289446838378908-0.12909869384765627 5.966188385009766-5.454405395507812 10.014344329833985-11.093237731933595 9.474897216796874-5.717212921142578-0.5486682128906251-10.586065704345703-6.026126770019531-9.161373229980468-11.835553161621092 1.816598693847656-7.353995635986328 4.47233642578125-14.59733642578125 7.561475738525391-21.540983642578126 2.872438934326172-6.46413931274414 6.869876770019531-12.430327697753906 10.217212646484375-18.705429931640627 7.3309424743652345-13.74897546386719 7.372438659667969-27.599385498046875 0.08299237060546877-41.37602508544922a658.2033814086915 658.2033814086915 0 0 0-11.397541442871095-20.632684295654297c-9.004610412597657-15.676229827880862-8.926229827880862-31.251024261474605 0.08299154663085938-46.91342202758789a472.59221347045906 472.59221347045906 0 0 0 11.84938604736328-21.660860412597657c5.403688934326172-10.650615051269531 6.510245635986328-21.670082336425782 2.4298154296875003-33.15061532592773-2.563524261474609-7.247950927734377-1.3094258422851561-10.014344329833985 5.380634948730469-14.569671478271484h5.625000274658203z m164.9923157043457 276.17827862548825c0.4426226806640625-15.169056976318359-16.782786529541013-30.794569519042973-34.768955017089844-31.292520446777345-19.493852508544922-0.5440572509765624-37.50307415771484 14.399078247070314-37.881147491455074 31.292520446777345h72.6501025085449z m-35.972336151123045 531.0691600341796h400.1680324401855c2.24538931274414 0 4.5092216491699215 0.036885223388671874 6.749999999999999-0.0461063232421875 28.33247982788086-1.1618849487304688 49.748975738525395-28.07889340209961 44.5389348449707-55.954918487548824-4.486167663574218-24.049180480957027-23.781761993408203-39.5548154296875-49.3201851196289-39.5548154296875-267.5286883850098-0.009221099853515624-535.0573767700196 0-802.5860651550292 0-2.070184295654297 0-4.121926391601562-0.009221099853515624-6.182889587402344 0.09221347045898437-23.823258178710933 1.0696723022460939-43.934938385009765 21.199794708251954-45.00461068725586 45.023052886962894-1.2679304809570313 28.171106872558592 20.379098693847656 50.42674182128906 49.21413958740234 50.435962921142576 134.1378069763184 0.02766412353515625 268.28483587646485 0.0046109619140625 402.42264367675784 0.0046109619140625z m-386.66803326416016-129.57786886596682h772.43698828125c-1.397028350830078-177.29354470825194-147.01997927856445-362.00102426147464-367.2387301025391-372.64702835083006-227.07479470825194-10.973360961914063-400.2971311340332 169.9533811340332-405.1982581787109 372.64702835083006zM28.43493865966793 841.2653691406251c0.8990782470703125-3.780737457275391 1.6045084533691405-7.621414123535157 2.7202870788574223-11.342213195800781 9.285860961914063-30.877561065673824 29.4067622680664-50.56045065307617 60.777663299560544-58.5230537109375 1.8119877319335942-0.46567584228515624 3.6239754638671884-0.8944672851562501 5.777152130126953-1.4200815124511719 4.172643676757813-99.1106553955078 37.83043020629883-186.85604525756835 103.47233615112305-261.5163936767578C266.66290948486335 433.9784836425781 349.05532769775397 389.1398568725586 446.9487707214356 371.97438522338865c1.3555329895019532-20.784836151123045 9.580942749023437-38.03790948486328 26.10553271484375-50.88780752563476 12.430327697753906-9.677766357421875 26.672643127441404-14.062500274658202 42.40420037841797-13.827356048583985 27.52561505126953 0.39651635742187497 61.70440567016602 21.27356597900391 65.01024618530272 64.75204879760742 97.45081951904298 17.06403707885742 179.87090185546876 61.874999725341794 245.36526608276367 136.32325790405272 65.54047137451172 74.48514340209962 99.26741821289062 162.01383206176754 103.57377072143554 261.4011270446777 3.411885223388672 0.8114757385253906 6.8606556701660155 1.429303436279297 10.189549346923828 2.4574795532226568 33.12756134033203 10.244876770019532 52.990266082763675 32.34836068725586 59.28381134033203 66.5225411682129 0.15676199340820313 0.8760242614746094 0.6270487976074218 1.7059430236816406 0.9451845703124999 2.554303161621094v19.111168212890625c-0.31813494873046877 0.8529710998535157-0.7838116149902343 1.673667938232422-0.9451845703124999 2.554303161621094-6.279713195800781 34.12807415771484-26.087090515136715 56.22233615112304-59.15010250854492 66.48565594482423-3.8775610656738286 1.2079920959472659-7.898052886962892 1.9641395874023437-11.849385223388673 2.918545257568359H100.375c-1.0281761169433594-0.345799072265625-2.0379100341796876-0.8253069763183594-3.0937502746582033-1.0235659790039062-34.33555343627929-6.570184020996094-56.27766357421875-26.806352783203124-66.29200790405275-60.13678244018555-1.0650613403320313-3.5409839172363284-1.715164123535156-7.192622680664063-2.558914123535156-10.798155944824218v-19.111168212890625z m482.7679299316406-375.39036941528315c-8.354508453369142 0.013832061767578126-15.030738006591795-6.634733367919921-14.970798797607422-14.897028350830077 0.05993838500976562-8.276127044677734 6.796106323242188-14.786372680664062 15.17827890014648-14.675717010498047a14.855532989501954 14.855532989501954 0 0 1 14.717212371826173 14.59733560180664c0.1152666320800781 8.206967559814455-6.620901306152344 14.961577697753906-14.924692474365234 14.975409759521483z m-315.59938522338865 266.09477481079097c5.182376770019531-92.48975408935547 46.30020529174805-164.78483642578124 118.89959051513672-219.83606570434569 41.97540975952149-31.827356597900394 88.81967230224609-53.99077890014649 139.42622927856445-68.33913903808595 2.697233917236328-0.7699795532226563 5.4405741577148445-1.4892418212890626 8.216188659667969-1.8119877319335942 8.561987731933593-0.9959018554687499 15.45491766357422 3.4902666320800777 17.220799072265624 10.977971099853514 1.83965185546875 7.838114501953125-2.3975411682128906 15.155225738525392-10.705942474365234 17.912398040771485-5.6803276977539054 1.8903691406249998-11.54047137451172 3.2090160827636716-17.24385223388672 5.039446014404296-58.29252044677735 18.719261993408203-110.9139342956543 47.15778652954102-154.03278680419922 91.36936532592773-45.24436505126953 46.38319683837891-68.63422164916992 102.34733642578125-71.70491876220703 166.951844329834-0.12448773193359373 2.6188525085449217-0.13831979370117187 5.260758178710937-0.5532783508300781 7.838114501953125-1.277151580810547 7.976434295654297-7.4830943298339845 13.287909759521487-15.095286529541017 13.11270474243164-7.621414123535157-0.17059405517578125-13.509221099853516-5.703380859375-14.36219302368164-13.84118811035156-0.35502017211914055-3.3288936767578123-0.06454934692382813-6.722335876464844-0.06454934692382813-9.373463470458985z m526.8319678344726-404.66803298950197c2.2684424743652345-6.8606556701660155 4.0804302062988285-13.914959381103515 6.915983093261719-20.526638763427734 2.5727461853027345-5.984631408691406 6.026126770019531-11.628073883056642 9.484119140625001-17.188524810791016 11.148565979003907-17.87090185546875 11.024078247070314-35.57581979370117-0.09221347045898437-53.400614501953115-3.2597333679199223-5.237705017089843-6.086065979003906-10.742827697753905-9.073769897460938-16.14651663208008-7.990266357421874-14.463626770019529-7.773565979003905-28.913422302246097-0.06454934692382813-43.432377319335934 2.918545257568359-5.505122680664063 7.441598144531251-7.773565979003905 12.287396942138672-5.850921752929687 4.864241821289062 1.9226434020996093 7.201844604492188 6.786885223388672 5.044057800292968 12.58708969116211-5.186987731933594 13.97028680419922-2.4759217529296875 26.806352783203124 4.4815575256347655 39.32428298950196 4.361679931640626 7.838114501953125 8.806352233886718 15.653175842285155 12.660860137939453 23.754098693847656 5.191598693847656 10.91803271484375 5.1731556701660155 22.204917663574218 0 33.12756134033203a274.98872955322264 274.98872955322264 0 0 1-12.172131134033203 22.753585876464847c-10.051229553222658 16.88883206176758-10.166496185302735 33.574794982910156-0.0461063232421875 50.435962921142576 3.5686472167968746 5.933914123535157 7.224897766113282 11.872438385009767 10.014344329833985 18.184426666259764a89.5712088317871 89.5712088317871 0 0 1 5.661885498046876 18.07377017211914c1.111167663574219 5.542007904052735-3.6239754638671884 10.821209106445313-9.106044982910156 11.420594604492186-5.403688934326172 0.5993854980468749-10.973360961914063-3.135245635986328-11.120901855468748-8.755635772705077-0.29969274902343745-12.052254364013672-6.620901306152344-21.559425842285158-11.641905944824218-31.7812494506836-4.476946563720703-9.147541168212891-7.907274810791015-18.81608642578125-11.706454467773437-28.295594604492187-0.4610657043457031-1.1711068725585938-0.30430288696289065-2.5865782470703125-0.42879144287109383-3.8867829895019526l-1.0973356018066407-0.39651635742187497z m-435.1075823364257-128.1716185913086c-1.5537911682128906-6.3627047424316405-2.628073608398437-11.084016632080079-3.863729827880859-15.768442474365237-1.5676232299804687-6.0076845703125 0.30430288696289065-10.69672137451172 5.1639345703125-12.610143676757811 4.859630859375001-1.9088113403320317 9.359631408691406 0.35963113403320307 12.282786804199217 5.869364776611328 7.71362677001953 14.518955017089842 7.911884948730468 28.968749725341798-0.07377044677734375 43.436987457275386-3.444159484863281 6.224384948730468-6.805328247070312 12.490266082763672-10.39241766357422 18.627049346923826-9.470287078857421 16.15573773193359-9.580942749023437 32.25153707885742-0.06916030883789061 48.4303279724121 3.4072742614746097 5.809426391601562 6.593238006591797 11.752561614990233 9.908299621582032 17.61270529174805 8.529713470458985 15.122950653076172 8.668032440185547 30.250512268066412 0.13831979370117187 45.42418020629883-3.4856556701660155 6.1967216491699215-7.515368591308594 12.172131134033203-10.235655670166016 18.691597869873046-2.8954920959472656 6.971311340332031-4.9795084533691405 14.36219302368164-6.593238006591797 21.753073883056643-1.3232579040527344 6.109119140625-5.703380859375 10.466188934326171-11.531250274658204 9.82069711303711-5.707991821289062-0.6362707214355469-10.466188934326171-6.146004364013672-8.9769462890625-11.983094879150391 1.9318645019531253-7.524590515136718 4.707479827880858-14.910860412597655 7.898052886962892-22.00665948486328 3.1260245361328125-6.9759223022460946 7.441598144531251-13.407786529541013 10.858094329833984-20.273053161621096 6.146004364013672-12.370389312744141 6.127561340332032-24.94364776611328-0.08299154663085938-37.29098391723633-3.8591188659667965-7.681352508544922-8.087089965820311-15.192110961914063-12.338115051269531-22.66598336791992-8.829405395507813-15.51946701049805-8.806352233886718-30.94672137451172 0.013832061767578126-46.43852426147461 3.8867829895019526-6.8329915466308595 8.123975189208982-13.527664123535155 11.2730537109375-20.683401580810546 2.964651580810547-6.740778900146484 4.702868865966796-14.016393127441408 6.616290344238282-19.94569711303711z" fill="#d8d8d8" p-id="3677"></path></svg>